<?xml version="1.0" encoding="utf-8"?>
<!-- Generator: Adobe Illustrator 25.4.1, SVG Export Plug-In . SVG Version: 6.00 Build 0)  -->
<svg version="1.1" id="图层_1" xmlns="http://www.w3.org/2000/svg" xmlns:xlink="http://www.w3.org/1999/xlink" x="0px" y="0px"
	 viewBox="0 0 1024 1024" style="enable-background:new 0 0 1024 1024;" xml:space="preserve">
<style type="text/css">
	.st0{fill:url(#SVGID_1_);}
	.st1{fill:#FBFBFB;fill-opacity:0.97;}
	.st2{fill:url(#SVGID_00000180333168025640110540000003665326472272226743_);}
</style>
<linearGradient id="SVGID_1_" gradientUnits="userSpaceOnUse" x1="-374" y1="94" x2="450" y2="94" gradientTransform="matrix(6.123234e-17 -1 -1 -6.123234e-17 606 550)">
	<stop  offset="8.000000e-02" style="stop-color:#563ACC"/>
	<stop  offset="0.52" style="stop-color:#6364FF"/>
</linearGradient>
<path class="st0" d="M100,744.3V279.7c0-99.2,80.4-179.7,179.6-179.7h464.7c99.2,0,179.7,80.4,179.7,179.7v464.7
	c0,99.2-80.4,179.7-179.7,179.7H279.6C180.4,924,100,843.6,100,744.3z"/>
<path class="st1" d="M788.1,348.1c-8.6-63.2-64.1-113-130-122.6c-11.1-1.6-53.2-7.5-150.7-7.5h-0.7c-97.5,0-118.5,5.9-129.6,7.6
	c-64,9.4-122.5,54.1-136.7,118.1c-6.8,31.5-7.6,66.4-6.3,98.4c1.8,45.9,2.2,91.8,6.4,137.5c2.9,30.4,8,60.5,15.2,90.2
	c13.5,54.8,68.1,100.4,121.5,119c57.3,19.4,118.8,22.6,177.8,9.3c6.5-1.5,12.9-3.2,19.3-5.2c14.3-4.5,31.1-9.6,43.5-18.4
	c0.2-0.1,0.3-0.3,0.4-0.5c0.1-0.2,0.1-0.4,0.2-0.6v-44.3c0-0.2-0.1-0.4-0.1-0.6c-0.1-0.2-0.2-0.3-0.4-0.4c-0.2-0.1-0.3-0.2-0.5-0.2
	c-0.2,0-0.4,0-0.6,0c-37.8,9-76.5,13.4-115.4,13.4c-66.9,0-84.9-31.5-90-44.6c-4.1-11.3-6.8-23.1-7.8-35.1c0-0.2,0-0.4,0.1-0.6
	c0.1-0.2,0.2-0.4,0.4-0.5c0.2-0.1,0.3-0.2,0.5-0.3c0.2,0,0.4,0,0.6,0c37.2,8.9,75.3,13.4,113.5,13.4c9.2,0,18.4,0,27.6-0.2
	c38.5-1.1,79-3,116.8-10.3c0.9-0.2,1.9-0.3,2.7-0.6c59.7-11.4,116.5-47,122.2-137.3c0.2-3.6,0.8-37.2,0.8-40.9
	C788.7,471.5,792.8,395.1,788.1,348.1z"/>
<linearGradient id="SVGID_00000099650021777078235600000016041746485081117335_" gradientUnits="userSpaceOnUse" x1="308.306" y1="446.1597" x2="713.6978" y2="446.1597">
	<stop  offset="7.551570e-02" style="stop-color:#563ACC"/>
	<stop  offset="0.5201" style="stop-color:#6364FF"/>
</linearGradient>
<path style="fill:url(#SVGID_00000099650021777078235600000016041746485081117335_);" d="M567.7,273.3c-2.1-6.1-2.5-8-3.9-8.5
	c-2.9-0.9-6.7,4.9-10.6,9.4c-6.7,7.7-8.8,5.8-24.6,17c-5.2,3.7-17.6,12.5-28.9,24.9c-4.9,5.4-9.4,11.2-10.3,12.5
	c-4.3,5.7-6.5,8.5-7.9,11.2c-4.8,9.5-4,16.8-7.3,17.3c-1.5,0.2-3.6-0.8-4.6-2.4c-0.5-0.8-0.5-1.5-0.6-2.4c-0.3-3,0.9-5.4,1.5-6.7
	c0.5-1,1.2-2.5,2.7-3.9c1.6-1.5,3.2-2.3,4.3-2.7c-0.4-0.2-1.1-0.4-1.8-0.6c-2.2-0.5-4-0.2-5.2,0c-3.2,0.6-5.6,2-7,3
	c-1.4,1-3.5,2.7-5.4,5.5c-1.4,2.2-2.2,4.3-2.5,5.8c-0.5-0.9-1.3-2.2-2.4-3.7c-1.7-2.3-2.9-3.9-4.9-5.4c-3-2.2-6.1-2.8-7.3-3
	c-3-0.5-5.3-0.3-6.7,0c-3,0.8-6.7,2.1-10.6,4.2c-2.5,1.4-4.7,2.9-6.4,4.3l9.4,2.1c-1.6,1-3.9,2.6-6.8,4.7c-2.5,1.9-3,2.5-3.9,2.5
	c-3.6,0.2-6.5-8.1-8.8-13.3c-1-2.2-4.7-10-13.7-24.6c-7.4-11.9-7.4-9.8-24-33.7c-10.5-15.2-12.5-19.3-17-19.4
	c-2-0.1-6.7,0.5-18.4,19.7c-6.6,10.9-14.6,24.1-20.1,44.2c-4.4,16.2-5.2,29.3-5.6,36.6c-0.7,12.4,0.1,21.6,0.3,23.7
	c1,11,3,20.2,4.9,27.2l3.8,11l6.5,11.9l7.4,10l7.2,8c-1.9-0.5-4.5-1.2-7.6-2c-8.1-1.9-9.8-1.9-10.6-0.9c-0.4,0.5-1.1,1.7,0.3,5.2
	c0,0,2.3,5.3,5.5,9.4c1.1,1.4,4.6,5.8,10.2,8.4c1.9,0.9,6.3,2.6,6.3,2.6c0,0,0-0.1,0-0.1c-0.1,0-0.5,0.8-2.3,8.8
	c-2.4,10.3,2.3,20.8,2.3,20.8c2.4-1.8,4.4-3.2,5.9-4.1c5.8-3.8,12.1-6.9,12.1-6.9c0,0,4.2,3.2,6,4.4c2.7,1.8,5.2,2.6,11.9,4.3
	c9.5,2.3,14.8,3.6,23.2,4.5c4.9,0.6,9.1,0.8,12.1,0.9l-16.6,7.7l16.9,1.9l-8.1,14.9l5.5-1.7c-0.3,1.2-0.9,3-2.1,5.1
	c-4.4,7.5-11.8,9-11.3,12.1c0.3,2.2,4.4,3.3,4.7,3.4c2.8,0.8,4-0.5,5.2,0.2c3,1.5,0.6,10.4,0.2,18.8c-0.4,7.7,1.4,16.5,2.8,20.3
	c0.3,0.8,1.5,4.3,2.4,9.2c0,0.1,0,0.2,0,0.3c0.3,1.6,3.6,20.3,8.3,20.4c0.5,0,0.8-0.2,1.1-0.3c5.5-3,9.9-9.3,13-11.7
	c5.9-4.6,15.4-2.3,25.4,0.3c14.4,3.8,18.9,10.1,22.8,7.7c5.6-3.3-2-17.1,2.8-27.9c3.8-8.8,16.1-16.9,50.1-17.9
	c2.9,0.1,7.2,0.5,12.2,1.8c5.2,1.4,8.9,3.3,13.1,5.5c6.4,3.3,6.9,4.4,12.6,7.3c4.6,2.3,8.2,3.5,12.4,5c9.3,3.3,17.1,4.8,19.8,5.3
	c3.2,0.6,10,1.7,10,1.7c0,0,16.2,0.9,27.6-0.6c19.3-2.6,33-13.1,37.6-17c10.3-8.7,16.3-18.4,19.7-25.3c4.1-8,9.5-21,11.2-37.7
	c1.1-11.7,0.1-21.7-1.3-29c-1.6-8.4-2.7-15.1-3.5-18.1c-1-4-1.2-3.9-4-13.3c-4.8-15.9-5.8-20.8-9.6-29.8c-1.1-2.5-2-4.5-2.6-5.7
	c-0.4-1.2-1-3.1-1.5-5.4c-0.7-3.4-0.9-5.7-1.1-5.7c-0.2,0-0.1,1.9-0.6,5.3c0,0-0.3,2.2-1.3,5.5c-0.5,1.8-0.9,2.6-1.2,2.5
	c-0.5,0-0.6-2.3-0.9-2.3c-0.5,0-0.6,3.6-1.1,3.6c-1,0.1-2.9-15.8-2.9-15.8c-5.4,8.8-7.1,10.3-7.1,10.3c-3.2,2.9-6.6,3.9-12.6,5.6
	c-3.3,1-5.9,1.4-9.3,2c-1.9,0.3-5.2,0.8-13.1,1.5c-8,0.7-9.1,0.6-16.6,1.2c-4.2,0.4-7.4,0.6-11.5,1.2c-5.6,0.8-11.7,1.6-18.5,3.5
	c-10.4,2.9-15.8,6.4-16.6,5.2c-0.7-1.1,3.9-4,8.4-11.4c2.5-4.2,3.6-7.6,5.2-12.3c2.2-6.6,3-11.7,3.9-17.3c1.4-8.6,1.8-14.9,1.8-16.3
	c0.3-5.8,0.1-10.4,0-12.9c-0.1-2.5-0.4-6.8-1.2-12.2c-0.6-3.6-2.3-10.6-2.3-10.6c-14-43.3-19.1-60.7-20.5-66.8
	C570.8,282,569.2,277.7,567.7,273.3z"/>
</svg>
