<svg id="box" xmlns="http://www.w3.org/2000/svg" xmlns:xlink="http://www.w3.org/1999/xlink" viewBox="0 0 824 824"><defs><style>.cls-1{fill:url(#purple__副本);}.cls-2{fill:#fbfbfb;fill-opacity:0.97;}.cls-3{fill:url(#purple__副本-2);}.cls-4{fill:url(#purple__副本-3);}</style><linearGradient id="purple__副本" x1="100" y1="512" x2="924" y2="512" gradientUnits="userSpaceOnUse"><stop offset="0.08" stop-color="#563acc"/><stop offset="0.52" stop-color="#6364ff"/></linearGradient><linearGradient id="purple__副本-2" x1="308.64" y1="448.79" x2="714.03" y2="448.79" xlink:href="#purple__副本"/><linearGradient id="purple__副本-3" x1="409.46" y1="254.52" x2="409.46" y2="254.52" xlink:href="#purple__副本"/></defs><rect id="square" class="cls-1" x="100" y="100" width="824" height="824" rx="179.65" transform="translate(-100 924) rotate(-90)"/><g id="icon-f"><path id="_path_" data-name="&lt;path&gt;" class="cls-2" d="M788.12,348.15c-8.58-63.19-64.13-113-130-122.63C647,223.89,604.93,218,507.41,218h-.73c-97.54,0-118.47,5.94-129.58,7.57-64,9.38-122.48,54.12-136.67,118.06-6.82,31.49-7.55,66.4-6.28,98.42,1.8,45.92,2.16,91.76,6.36,137.49a640.61,640.61,0,0,0,15.19,90.19c13.48,54.79,68.06,100.39,121.54,119A328.7,328.7,0,0,0,555.06,798q9.74-2.25,19.26-5.22c14.32-4.51,31.12-9.56,43.47-18.44a1.33,1.33,0,0,0,.41-.47,1.53,1.53,0,0,0,.16-.6V728.94a1.41,1.41,0,0,0-.14-.57,1.3,1.3,0,0,0-.37-.44,1.24,1.24,0,0,0-.53-.25,1.42,1.42,0,0,0-.58,0,497,497,0,0,1-115.4,13.37c-66.88,0-84.86-31.47-90-44.56a137.06,137.06,0,0,1-7.82-35.13,1.15,1.15,0,0,1,.1-.58,1.35,1.35,0,0,1,.37-.48,1.5,1.5,0,0,1,.54-.26,1.22,1.22,0,0,1,.6,0,488,488,0,0,0,113.51,13.36c9.2,0,18.36,0,27.56-.24,38.46-1.07,79-3,116.83-10.35.94-.18,1.88-.34,2.69-.58,59.68-11.36,116.48-47,122.25-137.31.21-3.56.75-37.24.75-40.92C788.74,471.48,792.78,395.09,788.12,348.15Z" transform="translate(-100 -100)"/><path class="cls-3" d="M568,276c-2.14-6.09-2.49-8-3.95-8.46-2.86-.94-6.69,4.88-10.63,9.38-6.71,7.65-8.78,5.82-24.61,17A176.79,176.79,0,0,0,500,318.81c-4.9,5.39-9.37,11.2-10.33,12.46-4.34,5.67-6.51,8.5-7.9,11.24-4.84,9.49-4,16.76-7.29,17.31a5.09,5.09,0,0,1-4.56-2.43,5.18,5.18,0,0,1-.61-2.43,12.58,12.58,0,0,1,1.52-6.68,13.32,13.32,0,0,1,2.74-3.95,12.78,12.78,0,0,1,4.25-2.74A11.34,11.34,0,0,0,476,341a11.75,11.75,0,0,0-5.17,0,17.47,17.47,0,0,0-7,3,19.84,19.84,0,0,0-5.36,5.48,19.51,19.51,0,0,0-2.54,5.76,42.09,42.09,0,0,0-2.41-3.71,22.88,22.88,0,0,0-4.88-5.41,17.29,17.29,0,0,0-7.3-3,16.42,16.42,0,0,0-6.67,0,47.08,47.08,0,0,0-17,8.5l9.42,2.13c-1.56,1-3.95,2.59-6.76,4.74-2.51,1.92-3,2.46-3.88,2.51-3.58.19-6.51-8.11-8.81-13.33-1-2.25-4.67-10-13.67-24.61-7.38-11.95-7.42-9.84-24-33.72-10.52-15.16-12.53-19.29-17-19.44-2-.07-6.67.55-18.38,19.71-6.64,10.87-14.59,24.1-20.09,44.24a167,167,0,0,0-5.58,36.61,171.52,171.52,0,0,0,.3,23.73,155.41,155.41,0,0,0,4.9,27.23l3.84,11,6.49,11.92,7.44,10,7.22,8c-1.85-.51-4.47-1.21-7.63-2-8.09-1.95-9.78-1.89-10.6-.95-.42.48-1.1,1.74.3,5.24a51.33,51.33,0,0,0,5.51,9.42,28.67,28.67,0,0,0,10.22,8.43c1.95.91,6.3,2.62,6.3,2.62l0-.09c-.08,0-.47.83-2.3,8.78-2.35,10.26,2.32,20.81,2.32,20.81,2.39-1.82,4.44-3.2,5.89-4.14,5.84-3.78,12.11-6.91,12.11-6.91s4.22,3.2,6,4.41c2.71,1.81,5.21,2.65,11.88,4.25,9.46,2.28,14.84,3.57,23.17,4.52,4.91.56,9.07.8,12.11.91l-16.55,7.71,16.86,1.9-8.05,14.92,5.48-1.72a20.74,20.74,0,0,1-2.14,5.06c-4.43,7.52-11.81,9-11.32,12.12.35,2.19,4.4,3.33,4.71,3.42,2.78.76,3.95-.51,5.24.15,3,1.52.62,10.39.23,18.8a62.5,62.5,0,0,0,2.77,20.31,56.34,56.34,0,0,1,2.39,9.15c0,.12,0,.16.05.26.26,1.55,3.6,20.31,8.31,20.37a2.08,2.08,0,0,0,1.06-.31c5.46-3,9.92-9.28,13-11.73,5.88-4.65,15.37-2.3,25.4.34,14.38,3.78,18.86,10.09,22.79,7.75,5.61-3.35-2-17.07,2.77-28,3.82-8.77,16.14-16.88,50.09-17.93a51.84,51.84,0,0,1,12.15,1.82,63.91,63.91,0,0,1,13.06,5.47c6.42,3.32,6.87,4.38,12.61,7.26a94.56,94.56,0,0,0,12.38,5,139.85,139.85,0,0,0,19.82,5.32c3.21.6,10,1.74,10,1.74s16.17.91,27.57-.61c19.25-2.56,33-13.13,37.59-17a76.9,76.9,0,0,0,19.67-25.25,103.2,103.2,0,0,0,9.85-66.77c-1.58-8.41-2.69-15.08-3.47-18.14-1-4-1.16-3.93-4-13.33C700,450,699,445.08,695.18,436.08c-1.07-2.49-2-4.49-2.59-5.7a51.3,51.3,0,0,1-1.45-5.35c-.73-3.39-.86-5.68-1.13-5.66s-.12,1.88-.6,5.31a44,44,0,0,1-1.28,5.51c-.54,1.84-.87,2.57-1.16,2.54-.49,0-.55-2.27-.91-2.27s-.59,3.61-1.06,3.64c-1,.06-2.89-15.79-2.89-15.8-5.4,8.78-7.14,10.33-7.14,10.33-3.18,2.86-6.6,3.86-12.6,5.62a72.88,72.88,0,0,1-9.27,2c-1.89.32-5.24.83-13.06,1.52-8,.7-9.09.55-16.56,1.21-4.18.37-7.35.65-11.54,1.22a130.18,130.18,0,0,0-18.53,3.49c-10.43,2.91-15.78,6.4-16.56,5.22s3.93-4,8.35-11.45c2.49-4.16,3.62-7.62,5.17-12.3a106.86,106.86,0,0,0,4-17.32,147.85,147.85,0,0,0,1.82-16.25,127.59,127.59,0,0,0,0-12.91,109.94,109.94,0,0,0-1.22-12.15c-.57-3.58-2.27-10.64-2.27-10.64-14-43.3-19.11-60.67-20.53-66.84A125.67,125.67,0,0,0,568,276Z" transform="translate(-100 -100)"/><path class="cls-4" d="M409.46,254.52" transform="translate(-100 -100)"/></g></svg>