<?xml version="1.0" encoding="utf-8"?>
<!-- Generator: Adobe Illustrator 25.4.1, SVG Export Plug-In . SVG Version: 6.00 Build 0)  -->
<svg version="1.1" id="图层_1" xmlns="http://www.w3.org/2000/svg" xmlns:xlink="http://www.w3.org/1999/xlink" x="0px" y="0px"
	 viewBox="0 0 261 66" style="enable-background:new 0 0 261 66;" xml:space="preserve">
<style type="text/css">
	.st0{fill:#FFFFFF;}
	.st1{fill:url(#_x3C_path_x3E__00000107590694422900281670000005889849519544164228_);fill-opacity:0.97;}
	.st2{clip-path:url(#SVGID_00000019660430892708037350000008450153288991417484_);}
	.st3{clip-path:url(#SVGID_00000037690522879643216670000004062219561626654361_);}
</style>
<symbol  id="Deleted_Symbol" viewBox="-79.1 -32.5 158.2 64.9">
	<g>
		<g>
			<path class="st0" d="M-4.3,15.6v-18h0.9c1,0,1.5-0.6,1.5-1.6s-0.5-1.5-1.5-1.5h-4.9C-9.4-5.5-9.9-5-9.9-4s0.5,1.6,1.5,1.6h0.9v18
				h-0.8c-1.1,0-1.6,0.5-1.6,1.6c0,1,0.5,1.5,1.5,1.5h5c1,0,1.5-0.6,1.5-1.5c0-1.1-0.5-1.6-1.5-1.6H-4.3z"/>
			<path class="st0" d="M22.7-3c0.6-0.8,0.5-1.6-0.4-2.2s-1.6-0.5-2.2,0.4L6.3,12.6v-16c0-1-0.5-1.5-1.5-1.5S3.3-4.4,3.3-3.4v20.3
				c0,0.5,0.2,0.8,0.5,1.1L4,18.1c0.8,0.6,1.5,0.5,2.1-0.4L22.7-3z M21.9,18.5c1,0,1.5-0.5,1.5-1.5V3.7c0-1-0.5-1.5-1.5-1.5
				s-1.5,0.5-1.5,1.5V17C20.3,18,20.9,18.5,21.9,18.5z"/>
			<path class="st0" d="M29.1-5.4c-0.3,0.1-0.6,0.4-0.7,0.8c-0.2,0.4-0.2,0.8-0.1,1.2l5.3,15.5c0.1,0.4,0.4,0.7,0.7,0.8
				c0.3,0.2,0.7,0.2,1.1,0.1c0.3-0.1,0.6-0.4,0.7-0.8c0.2-0.4,0.2-0.8,0.1-1.2L30.8-4.5c-0.1-0.4-0.4-0.7-0.7-0.8
				C29.8-5.5,29.4-5.5,29.1-5.4z M43.3-4.5L36,16.8c-0.1,0.4-0.1,0.8,0,1.2c0.2,0.4,0.4,0.6,0.8,0.8c0.4,0.1,0.7,0.1,1.1,0
				c0.3-0.2,0.6-0.5,0.7-0.9L46-3.3c0.1-0.4,0.1-0.8-0.1-1.2c-0.1-0.4-0.4-0.6-0.7-0.8c-0.4-0.1-0.7-0.1-1.1,0
				C43.7-5.2,43.5-4.9,43.3-4.5z"/>
			<path class="st0" d="M50.3,7.6v0.2v9.1v0.2c0,0.5,0.1,0.9,0.4,1.2c0.4,0.4,1,0.4,1.2,0.4c1.2,0,4.3,0.1,8.5,0.1
				c2.6-0.2,4.3-1.3,4.9-1.9c0.7-0.7,1.1-1.7,1.1-1.7l0,0c0.4-0.8,0.6-1.7,0.6-2.7c-0.1-4.4-2.4-6.6-6.8-6.6c-2.2,0-4.5,0-6.7,0.1
				v-9.8c0-1.1-0.5-1.6-1.5-1.6c-1.1,0-1.6,0.5-1.6,1.6C50.3,0,50.3,3.8,50.3,7.6z M53.5,9.1c2.7-0.1,4.9,0,6.5,0.1
				c1,0.1,2,0.1,2.8,0.9c0.9,0.9,0.9,2.3,0.9,2.5c0,0.9-0.2,1.5-0.7,2c-0.1,0.1-0.2,0.2-0.3,0.3c0,0-0.2,0.1-0.4,0.2
				c-0.8,0.4-1.8,0.4-1.8,0.4c-1,0-3.5,0-7,0C53.5,13.4,53.5,11.2,53.5,9.1z M59.4,4.2c0.6,0,1-0.2,1.3-0.7L66-2.8
				c0.7-0.8,0.7-1.5-0.1-2.2c-0.8-0.7-1.5-0.7-2.2,0.1l-5.4,6.4c-0.3,0.3-0.4,0.6-0.5,0.9v0.2C57.8,3.7,58.4,4.2,59.4,4.2z"/>
			<path class="st0" d="M76.7,15.6v-18h0.9c1,0,1.5-0.6,1.5-1.6s-0.5-1.5-1.5-1.5h-4.9c-1.1,0-1.6,0.5-1.6,1.5s0.5,1.6,1.5,1.6h0.9
				v18h-0.8c-1.1,0-1.6,0.5-1.6,1.6c0,1,0.5,1.5,1.5,1.5h5c1,0,1.5-0.6,1.5-1.5c0-1.1-0.5-1.6-1.5-1.6H76.7z"/>
		</g>
		
			<linearGradient id="_x3C_path_x3E__00000142890107516186073660000011713373719216717759_" gradientUnits="userSpaceOnUse" x1="-237.4227" y1="-65" x2="-176.0551" y2="-65" gradientTransform="matrix(1 0 0 1 158.3 65)">
			<stop  offset="7.551570e-02" style="stop-color:#563ACC"/>
			<stop  offset="0.5201" style="stop-color:#6364FF"/>
		</linearGradient>
		
			<path id="_x3C_path_x3E__00000137826011537527719390000008708268023713158320_" style="fill:url(#_x3C_path_x3E__00000142890107516186073660000011713373719216717759_);fill-opacity:0.97;" d="
			M-18,18.2c-0.9,7-7.1,12.5-14.3,13.5c-1.2,0.2-5.9,0.8-16.6,0.8H-49c-10.8,0-13.1-0.7-14.3-0.8c-7.1-1-13.5-6-15.1-13
			c-0.8-3.5-0.8-7.3-0.7-10.9c0.2-5.1,0.2-10.1,0.7-15.2c0.3-3.4,0.9-6.7,1.7-10c1.5-6.1,7.5-11.1,13.4-13.1
			c6.3-2.1,13.1-2.5,19.6-1c0.7,0.2,1.4,0.4,2.1,0.6c1.6,0.5,3.4,1.1,4.8,2c0,0,0,0,0,0.1c0,0,0,0,0,0.1v4.9c0,0,0,0,0,0.1s0,0,0,0
			s0,0-0.1,0c0,0,0,0-0.1,0c-4.2-1-8.4-1.5-12.7-1.5c-7.4,0-9.4,3.5-9.9,4.9c-0.5,1.2-0.7,2.6-0.9,3.9c0,0,0,0,0,0.1c0,0,0,0,0,0.1
			c0,0,0,0,0.1,0c0,0,0,0,0.1,0c4.1-1,8.3-1.5,12.5-1.5c1,0,2,0,3,0c4.2,0.1,8.7,0.3,12.9,1.1c0.1,0,0.2,0,0.3,0.1
			c6.6,1.3,12.8,5.2,13.5,15.2C-18-0.9-18,2.8-18,3.2C-18,4.6-17.5,13-18,18.2z"/>
		<path class="st0" d="M-42.3,26.2c-0.2,0.7-0.3,0.9-0.4,0.9c-0.3,0.1-0.7-0.5-1.2-1c-0.7-0.8-1-0.6-2.7-1.9
			c-0.6-0.4-1.9-1.4-3.2-2.8c-0.5-0.6-1-1.2-1.1-1.4c-0.5-0.6-0.7-0.9-0.9-1.2c-0.5-1-0.4-1.9-0.8-1.9c-0.2,0-0.4,0.1-0.5,0.3
			c-0.1,0.1-0.1,0.2-0.1,0.3c0,0.3,0.1,0.6,0.2,0.7c0.1,0.1,0.1,0.3,0.3,0.4c0.2,0.2,0.4,0.3,0.5,0.3c0,0-0.1,0-0.2,0.1
			c-0.2,0.1-0.4,0-0.6,0c-0.3-0.1-0.6-0.2-0.8-0.3c-0.2-0.1-0.4-0.3-0.6-0.6c-0.2-0.2-0.2-0.5-0.3-0.6c-0.1,0.1-0.1,0.2-0.3,0.4
			c-0.2,0.3-0.3,0.4-0.5,0.6c-0.3,0.2-0.7,0.3-0.8,0.3c-0.3,0.1-0.6,0-0.7,0c-0.3-0.1-0.7-0.2-1.2-0.5c-0.3-0.2-0.5-0.3-0.7-0.5
			l1-0.2c-0.2-0.1-0.4-0.3-0.7-0.5s-0.3-0.3-0.4-0.3c-0.4,0-0.7,0.9-1,1.5c-0.1,0.2-0.5,1.1-1.5,2.7c-0.8,1.3-0.8,1.1-2.6,3.7
			c-1.2,1.7-1.4,2.1-1.9,2.1c-0.2,0-0.7-0.1-2-2.2c-0.7-1.2-1.6-2.7-2.2-4.9c-0.5-1.8-0.6-3.2-0.6-4c-0.1-1.4,0-2.4,0-2.6
			c0.1-1.2,0.3-2.2,0.5-3l0.4-1.2l0.7-1.3l0.8-1.1l0.8-0.9c-0.2,0.1-0.5,0.1-0.8,0.2C-69.3,6-69.5,6-69.6,5.9c0-0.1-0.1-0.2,0-0.6
			c0,0,0.3-0.6,0.6-1c0.1-0.2,0.5-0.6,1.1-0.9c0.2-0.1,0.7-0.3,0.7-0.3l0,0c0,0-0.1-0.1-0.3-1c-0.3-1.1,0.3-2.3,0.3-2.3
			c0.3,0.2,0.5,0.4,0.6,0.5c0.6,0.4,1.3,0.8,1.3,0.8s0.5-0.4,0.7-0.5c0.3-0.2,0.6-0.3,1.3-0.5c1-0.3,1.6-0.4,2.6-0.5
			c0.5-0.1,1-0.1,1.3-0.1l-1.8-0.9l1.9-0.2l-0.9-1.6l0.6,0.2c0-0.1-0.1-0.3-0.2-0.6c-0.4-0.8-1.2-1-1.2-1.3c0-0.2,0.5-0.4,0.5-0.4
			c0.3-0.1,0.4,0.1,0.6,0c0.3-0.2,0.1-1.1,0-2.1c0-0.9,0.2-1.8,0.3-2.2c0-0.1,0.2-0.5,0.3-1l0,0c0-0.2,0.4-2.2,0.9-2.2
			c0.1,0,0.1,0,0.1,0c0.6,0.3,1.1,1,1.4,1.3c0.6,0.5,1.7,0.3,2.8,0c1.6-0.4,2.1-1.1,2.5-0.9c0.6,0.4-0.2,1.9,0.3,3.1
			c0.4,1,1.8,1.9,5.5,2c0.3,0,0.8-0.1,1.3-0.2c0.6-0.2,1-0.4,1.4-0.6c0.7-0.4,0.8-0.5,1.4-0.8c0.5-0.3,0.9-0.4,1.4-0.6
			c1-0.4,1.9-0.5,2.2-0.6c0.4-0.1,1.1-0.2,1.1-0.2s1.8-0.1,3,0.1c2.1,0.3,3.6,1.5,4.1,1.9c1.1,1,1.8,2,2.2,2.8
			c0.5,0.9,1.1,2.3,1.2,4.2c0.1,1.3,0,2.4-0.1,3.2c-0.2,0.9-0.3,1.7-0.4,2c-0.1,0.4-0.1,0.4-0.4,1.5c-0.5,1.8-0.6,2.3-1.1,3.3
			c-0.1,0.3-0.2,0.5-0.3,0.6c0,0.1-0.1,0.3-0.2,0.6c-0.1,0.4-0.1,0.6-0.1,0.6s0-0.2-0.1-0.6c0,0,0-0.2-0.1-0.6
			C-29.4,9.1-29.4,9-29.4,9c-0.1,0-0.1,0.3-0.1,0.3c-0.1,0-0.1-0.4-0.1-0.4c-0.1,0-0.3,1.7-0.3,1.7c-0.6-1-0.8-1.1-0.8-1.1
			c-0.4-0.3-0.7-0.4-1.4-0.6c-0.4-0.1-0.6-0.2-1-0.2c-0.2,0-0.6-0.1-1.4-0.2c-0.9-0.1-1-0.1-1.8-0.1C-36.7,8.1-37,8.1-37.5,8
			c-0.6-0.1-1.3-0.2-2-0.4c-1.1-0.3-1.7-0.7-1.8-0.6s0.4,0.4,0.9,1.3c0.3,0.5,0.4,0.8,0.6,1.4c0.2,0.7,0.3,1.3,0.4,1.9
			c0.2,0.9,0.2,1.6,0.2,1.8c0,0.6,0,1.1,0,1.4c0,0.3,0,0.7-0.1,1.3c-0.1,0.4-0.3,1.2-0.3,1.2c-1.5,4.8-2.1,6.7-2.3,7.4
			C-42,25.2-42.1,25.7-42.3,26.2z"/>
	</g>
</symbol>
<symbol  id="logo-symbol-wordmark-with-sub" viewBox="-79.2 -33 158.5 66.1">
	<g>
		<g>
			<defs>
				<rect id="SVGID_1_" x="-79.2" y="-33" width="158.4" height="64.9"/>
			</defs>
			<clipPath id="SVGID_00000183947132270739540650000006820463734386997893_">
				<use xlink:href="#SVGID_1_"  style="overflow:visible;"/>
			</clipPath>
			<g style="clip-path:url(#SVGID_00000183947132270739540650000006820463734386997893_);">
				<g>
					<defs>
						<rect id="SVGID_00000123421697135238212180000016300230249813853590_" x="-79.1" y="-32.4" width="158.2" height="64.9"/>
					</defs>
					<clipPath id="SVGID_00000049935096220468441140000004307026066282469252_">
						<use xlink:href="#SVGID_00000123421697135238212180000016300230249813853590_"  style="overflow:visible;"/>
					</clipPath>
					<g style="clip-path:url(#SVGID_00000049935096220468441140000004307026066282469252_);">
						
							<use xlink:href="#Deleted_Symbol"  width="158.2" height="64.9" id="XMLID_00000072993339515706052130000005655400703770559118_" x="-79.1" y="-32.5" transform="matrix(1 0 0 -1 -0.1159 0.5994)" style="overflow:visible;"/>
					</g>
				</g>
			</g>
		</g>
	</g>
	<g>
		<path class="st0" d="M-7.2,18.7l-0.1,3.9c0,0.4,0.2,0.6,0.6,0.5s0.6-0.3,0.6-0.7l0.1-3.7c0.1,0.3,0.4,0.5,0.7,0.5
			c0.2,0,0.4-0.1,0.5-0.4c0.1-0.1,0.2-0.3,0.2-0.5c0-0.2,0-0.3-0.2-0.5c-0.1-0.1-0.3-0.2-0.5-0.2c-0.3,0-0.6,0.1-0.7,0.4v-1.2h0.7
			c0.4,0,0.6-0.2,0.6-0.6v-0.3c0-0.4-0.2-0.5-0.6-0.5l-0.6,0.1v-1.4c0.1,0,0.2,0,0.3,0c0.1,0,0.2,0,0.3,0c0.4-0.1,0.6-0.3,0.4-0.7
			v-0.1C-5,13-5.1,12.9-5.3,12.8c-0.1,0-0.4,0-0.6,0.1C-6.2,13-6.6,13.2-7,13.3s-0.8,0.2-1.2,0.3c-0.2,0.1-0.3,0.2-0.3,0.5
			c0.1,0.3,0.2,0.4,0.5,0.4l0.9-0.1v1.4l-1,0.1c-0.3,0.1-0.5,0.3-0.4,0.6v0.1c0,0.3,0.2,0.4,0.5,0.4h0.4c-0.2,0.6-0.3,1.2-0.5,1.7
			c-0.2,0.5-0.4,1.1-0.6,1.6c-0.1,0.2-0.1,0.4,0.1,0.5s0.3,0.1,0.4-0.1C-7.8,20.1-7.5,19.4-7.2,18.7L-7.2,18.7z M0.2,22.9
			c0,0.1,0,0.2,0.2,0.2h0.4c0.4,0,0.6-0.2,0.6-0.6l0.2-4.2c0-1-0.4-1.4-1.4-1.3l-0.9,0.1c-0.3,0-0.4,0.3-0.4,0.6
			c0,0.3,0.2,0.5,0.6,0.5h0.7v1l-0.9,0.1c-0.3,0.1-0.5,0.3-0.4,0.6c0,0.3,0.2,0.5,0.6,0.5h0.7v1.1L-3,21.8v-1.4h0.6
			c0.4,0,0.6-0.2,0.6-0.6v-0.1c0-0.4-0.2-0.6-0.6-0.5L-3,19.3v-1.1c0.3,0,0.6,0,0.9,0c0.5-0.1,0.7-0.4,0.5-0.9v-0.1
			c-0.1-0.3-0.2-0.4-0.3-0.4c-0.2,0-0.3,0-0.5,0.2c-0.2,0.2-0.4,0.3-0.6,0.4v-0.2c0-0.1-0.1-0.2-0.2-0.2h-0.5
			c-0.5,0-0.7,0.2-0.7,0.7l0.2,5c0,0.4,0.2,0.5,0.6,0.5h0.4c0.1,0,0.2-0.1,0.2-0.2v-0.2h3.2V22.9z M-2.8,16.3
			c0.2-0.1,0.3-0.4,0.3-0.6c0-0.3-0.1-0.5-0.3-0.7s-0.4-0.3-0.7-0.3c-0.2,0-0.4,0.1-0.6,0.3c-0.2,0.2-0.3,0.4-0.3,0.7
			c0,0.2,0.1,0.4,0.3,0.6c0.1,0.2,0.4,0.3,0.6,0.3C-3.2,16.6-3,16.6-2.8,16.3z M-3.9,14.4c0.7,0,1.4,0,2.2-0.1S0,14.2,0.8,14
			c0.5,0,0.7-0.3,0.5-0.8c-0.1-0.5-0.5-0.7-1-0.6l-0.8,0.2c-0.5,0.1-1,0.1-1.6,0.3s-1.3,0.3-2,0.4c-0.3,0.1-0.4,0.2-0.3,0.5
			S-4.2,14.4-3.9,14.4z M-0.8,16c0.2-0.2,0.3-0.4,0.3-0.6c0-0.2,0-0.4-0.2-0.6c-0.1-0.2-0.3-0.3-0.6-0.3c-0.2,0-0.4,0.1-0.6,0.3
			c-0.2,0.2-0.3,0.4-0.3,0.6c0,0.2,0.1,0.4,0.3,0.6c0.2,0.2,0.4,0.3,0.6,0.3S-0.8,16.2-0.8,16z M0.5,16.6c0.2-0.2,0.4-0.3,0.5-0.5
			c0.2-0.2,0.3-0.3,0.4-0.5l0.2-0.3c0.2-0.2,0.1-0.3-0.1-0.4l-1.1-0.4c-0.2-0.1-0.3,0-0.3,0.2V15C0,15.3,0,15.7-0.2,16.2
			c-0.1,0.2,0,0.4,0.2,0.5C0.2,16.9,0.4,16.8,0.5,16.6z"/>
		<path class="st0" d="M4.7,22.6c0,0.4,0.2,0.6,0.6,0.5c0.4,0,0.6-0.3,0.6-0.7V17c0.3-0.4,0.5-0.9,0.8-1.4c0.1-0.1,0.1-0.2-0.1-0.3
			l-0.3-0.1L6.9,15c0.2,0,0.3-0.1,0.3-0.3v-0.3h2.5v0.4c0,0.3,0.1,0.4,0.4,0.4h0.5c0.2,0,0.4-0.2,0.4-0.4v-0.3h2.3
			c0.5,0,0.7-0.2,0.7-0.7s-0.2-0.7-0.7-0.7l-2.2,0.1v-0.3c0-0.2-0.1-0.3-0.3-0.3L10,12.5c-0.3,0-0.4,0.1-0.4,0.4v0.4l-2.2,0.1V13
			c0-0.2-0.1-0.4-0.4-0.4H6.4c-0.3-0.1-0.5,0.1-0.5,0.4v0.5l-2.3,0.1c-0.4,0-0.5,0.2-0.4,0.5c0.1,0.3,0.3,0.5,0.6,0.5h2.1v0.6
			l-0.3-0.1c-0.3-0.1-0.4,0-0.5,0.2c-0.2,0.6-0.5,1.3-0.8,2c-0.3,0.6-0.6,1.3-1,2c-0.1,0.2-0.1,0.2,0.1,0.4c0.1,0.2,0.3,0.2,0.4,0
			c0.2-0.1,0.3-0.2,0.4-0.3c0.1-0.1,0.2-0.3,0.3-0.4L4.7,22.6z M11.3,23c1,0.2,1.5-0.2,1.5-1.2l0.2-4.9h0.4c0.3,0,0.4-0.1,0.4-0.4
			v-0.3c0-0.5-0.2-0.7-0.7-0.7l-6,0.4c-0.4,0-0.5,0.2-0.4,0.5c0.1,0.3,0.3,0.5,0.6,0.5h4.2v4.9L10.1,22c-0.2,0-0.3,0.2-0.3,0.4
			c0,0.2,0.1,0.4,0.3,0.4L11.3,23z M7.1,21.4c0,0.4,0.2,0.5,0.6,0.5H8c0.1-0.1,0.2-0.1,0.2-0.3v-0.2h1.2c0.8,0,1.2-0.4,1.2-1.1
			l0.1-1.4c0-0.8-0.4-1.2-1.2-1.1L8.2,18v-0.2c0-0.1-0.1-0.2-0.2-0.2H7.4c-0.4,0-0.6,0.3-0.6,0.7L7.1,21.4z M8.2,19.1h1.1v1.1
			l-1.1,0.1V19.1z"/>
	</g>
</symbol>
<g id="图层_2_00000078727019194181205790000016520123684360951708_">
</g>
<g id="图层_1_00000093177411206960925680000003227538961761014181_">
	<g>
		<g>
			<defs>
				<rect id="SVGID_00000047044957152172527580000010379861767297999800_" y="0.1" width="158.4" height="64.9"/>
			</defs>
			<clipPath id="SVGID_00000056419613954248670490000015207262396591646132_">
				<use xlink:href="#SVGID_00000047044957152172527580000010379861767297999800_"  style="overflow:visible;"/>
			</clipPath>
			<g style="clip-path:url(#SVGID_00000056419613954248670490000015207262396591646132_);">
				<g>
					<defs>
						<rect id="SVGID_00000128463750190202167950000010177742959832651401_" x="0" y="-0.2" width="158.4" height="65.5"/>
					</defs>
					<clipPath id="SVGID_00000024000716670004790920000010777296552366781345_">
						<use xlink:href="#SVGID_00000128463750190202167950000010177742959832651401_"  style="overflow:visible;"/>
					</clipPath>
					<g style="clip-path:url(#SVGID_00000024000716670004790920000010777296552366781345_);">
						
							<use xlink:href="#logo-symbol-wordmark-with-sub"  width="158.5" height="66.1" id="XMLID_00000002384308578363576720000002388368554892263560_" x="-79.2" y="-33" transform="matrix(1 0 0 1 79.2 33)" style="overflow:visible;"/>
					</g>
				</g>
			</g>
		</g>
	</g>
</g>
</svg>
