<?xml version="1.0" encoding="utf-8"?>
<!-- Generator: Adobe Illustrator 25.4.1, SVG Export Plug-In . SVG Version: 6.00 Build 0)  -->
<svg version="1.1" id="图层_1" xmlns="http://www.w3.org/2000/svg" xmlns:xlink="http://www.w3.org/1999/xlink" x="0px" y="0px"
	 viewBox="0 0 261 66" style="enable-background:new 0 0 261 66;" xml:space="preserve">
<style type="text/css">
	.st0{fill:#FFFFFF;}
	.st1{fill:url(#_x3C_path_x3E__00000162353799242140481990000001480715739542591374_);fill-opacity:0.97;}
</style>
<symbol  id="Deleted_Symbol" viewBox="-79.1 -32.5 158.2 64.9">
	<g>
		<g>
			<path class="st0" d="M-4.3,15.6v-18h0.9c1,0,1.5-0.6,1.5-1.6s-0.5-1.5-1.5-1.5h-4.9C-9.4-5.5-9.9-5-9.9-4s0.5,1.6,1.5,1.6h0.9v18
				h-0.8c-1.1,0-1.6,0.5-1.6,1.6c0,1,0.5,1.5,1.5,1.5h5c1,0,1.5-0.6,1.5-1.5c0-1.1-0.5-1.6-1.5-1.6H-4.3z"/>
			<path class="st0" d="M22.7-3c0.6-0.8,0.5-1.6-0.4-2.2s-1.6-0.5-2.2,0.4L6.3,12.6v-16c0-1-0.5-1.5-1.5-1.5S3.3-4.4,3.3-3.4v20.3
				c0,0.5,0.2,0.8,0.5,1.1L4,18.1c0.8,0.6,1.5,0.5,2.1-0.4L22.7-3z M21.9,18.5c1,0,1.5-0.5,1.5-1.5V3.7c0-1-0.5-1.5-1.5-1.5
				s-1.5,0.5-1.5,1.5V17C20.3,18,20.9,18.5,21.9,18.5z"/>
			<path class="st0" d="M29.1-5.4c-0.3,0.1-0.6,0.4-0.7,0.8c-0.2,0.4-0.2,0.8-0.1,1.2l5.3,15.5c0.1,0.4,0.4,0.7,0.7,0.8
				c0.3,0.2,0.7,0.2,1.1,0.1c0.3-0.1,0.6-0.4,0.7-0.8c0.2-0.4,0.2-0.8,0.1-1.2L30.8-4.5c-0.1-0.4-0.4-0.7-0.7-0.8
				C29.8-5.5,29.4-5.5,29.1-5.4z M43.3-4.5L36,16.8c-0.1,0.4-0.1,0.8,0,1.2c0.2,0.4,0.4,0.6,0.8,0.8c0.4,0.1,0.7,0.1,1.1,0
				c0.3-0.2,0.6-0.5,0.7-0.9L46-3.3c0.1-0.4,0.1-0.8-0.1-1.2c-0.1-0.4-0.4-0.6-0.7-0.8c-0.4-0.1-0.7-0.1-1.1,0
				C43.7-5.2,43.5-4.9,43.3-4.5z"/>
			<path class="st0" d="M50.3,7.6v0.2v9.1v0.2c0,0.5,0.1,0.9,0.4,1.2c0.4,0.4,1,0.4,1.2,0.4c1.2,0,4.3,0.1,8.5,0.1
				c2.6-0.2,4.3-1.3,4.9-1.9c0.7-0.7,1.1-1.7,1.1-1.7l0,0c0.4-0.8,0.6-1.7,0.6-2.7c-0.1-4.4-2.4-6.6-6.8-6.6c-2.2,0-4.5,0-6.7,0.1
				v-9.8c0-1.1-0.5-1.6-1.5-1.6c-1.1,0-1.6,0.5-1.6,1.6C50.3,0,50.3,3.8,50.3,7.6z M53.5,9.1c2.7-0.1,4.9,0,6.5,0.1
				c1,0.1,2,0.1,2.8,0.9c0.9,0.9,0.9,2.3,0.9,2.5c0,0.9-0.2,1.5-0.7,2c-0.1,0.1-0.2,0.2-0.3,0.3c0,0-0.2,0.1-0.4,0.2
				c-0.8,0.4-1.8,0.4-1.8,0.4c-1,0-3.5,0-7,0C53.5,13.4,53.5,11.2,53.5,9.1z M59.4,4.2c0.6,0,1-0.2,1.3-0.7L66-2.8
				c0.7-0.8,0.7-1.5-0.1-2.2c-0.8-0.7-1.5-0.7-2.2,0.1l-5.4,6.4c-0.3,0.3-0.4,0.6-0.5,0.9v0.2C57.8,3.7,58.4,4.2,59.4,4.2z"/>
			<path class="st0" d="M76.7,15.6v-18h0.9c1,0,1.5-0.6,1.5-1.6s-0.5-1.5-1.5-1.5h-4.9c-1.1,0-1.6,0.5-1.6,1.5s0.5,1.6,1.5,1.6h0.9
				v18h-0.8c-1.1,0-1.6,0.5-1.6,1.6c0,1,0.5,1.5,1.5,1.5h5c1,0,1.5-0.6,1.5-1.5c0-1.1-0.5-1.6-1.5-1.6H76.7z"/>
		</g>
		
			<linearGradient id="_x3C_path_x3E__00000085217964680574287520000004326814525563128987_" gradientUnits="userSpaceOnUse" x1="-158.3227" y1="-32.5" x2="-96.9551" y2="-32.5" gradientTransform="matrix(1 0 0 1 79.2 32.5)">
			<stop  offset="7.551570e-02" style="stop-color:#563ACC"/>
			<stop  offset="0.5201" style="stop-color:#6364FF"/>
		</linearGradient>
		
			<path id="_x3C_path_x3E__00000067204891299986254410000008613109579413119410_" style="fill:url(#_x3C_path_x3E__00000085217964680574287520000004326814525563128987_);fill-opacity:0.97;" d="
			M-18,18.2c-0.9,7-7.1,12.5-14.3,13.5c-1.2,0.2-5.9,0.8-16.6,0.8H-49c-10.8,0-13.1-0.7-14.3-0.8c-7.1-1-13.5-6-15.1-13
			c-0.8-3.5-0.8-7.3-0.7-10.9c0.2-5.1,0.2-10.1,0.7-15.2c0.3-3.4,0.9-6.7,1.7-10c1.5-6.1,7.5-11.1,13.4-13.1
			c6.3-2.1,13.1-2.5,19.6-1c0.7,0.2,1.4,0.4,2.1,0.6c1.6,0.5,3.4,1.1,4.8,2c0,0,0,0,0,0.1c0,0,0,0,0,0.1v4.9c0,0,0,0,0,0.1s0,0,0,0
			s0,0-0.1,0c0,0,0,0-0.1,0c-4.2-1-8.4-1.5-12.7-1.5c-7.4,0-9.4,3.5-9.9,4.9c-0.5,1.2-0.7,2.6-0.9,3.9c0,0,0,0,0,0.1c0,0,0,0,0,0.1
			c0,0,0,0,0.1,0c0,0,0,0,0.1,0c4.1-1,8.3-1.5,12.5-1.5c1,0,2,0,3,0c4.2,0.1,8.7,0.3,12.9,1.1c0.1,0,0.2,0,0.3,0.1
			c6.6,1.3,12.8,5.2,13.5,15.2C-18-0.9-18,2.8-18,3.2C-18,4.6-17.5,13-18,18.2z"/>
		<path class="st0" d="M-42.3,26.2c-0.2,0.7-0.3,0.9-0.4,0.9c-0.3,0.1-0.7-0.5-1.2-1c-0.7-0.8-1-0.6-2.7-1.9
			c-0.6-0.4-1.9-1.4-3.2-2.8c-0.5-0.6-1-1.2-1.1-1.4c-0.5-0.6-0.7-0.9-0.9-1.2c-0.5-1-0.4-1.9-0.8-1.9c-0.2,0-0.4,0.1-0.5,0.3
			c-0.1,0.1-0.1,0.2-0.1,0.3c0,0.3,0.1,0.6,0.2,0.7c0.1,0.1,0.1,0.3,0.3,0.4c0.2,0.2,0.4,0.3,0.5,0.3c0,0-0.1,0-0.2,0.1
			c-0.2,0.1-0.4,0-0.6,0c-0.3-0.1-0.6-0.2-0.8-0.3c-0.2-0.1-0.4-0.3-0.6-0.6c-0.2-0.2-0.2-0.5-0.3-0.6c-0.1,0.1-0.1,0.2-0.3,0.4
			c-0.2,0.3-0.3,0.4-0.5,0.6c-0.3,0.2-0.7,0.3-0.8,0.3c-0.3,0.1-0.6,0-0.7,0c-0.3-0.1-0.7-0.2-1.2-0.5c-0.3-0.2-0.5-0.3-0.7-0.5
			l1-0.2c-0.2-0.1-0.4-0.3-0.7-0.5s-0.3-0.3-0.4-0.3c-0.4,0-0.7,0.9-1,1.5c-0.1,0.2-0.5,1.1-1.5,2.7c-0.8,1.3-0.8,1.1-2.6,3.7
			c-1.2,1.7-1.4,2.1-1.9,2.1c-0.2,0-0.7-0.1-2-2.2c-0.7-1.2-1.6-2.7-2.2-4.9c-0.5-1.8-0.6-3.2-0.6-4c-0.1-1.4,0-2.4,0-2.6
			c0.1-1.2,0.3-2.2,0.5-3l0.4-1.2l0.7-1.3l0.8-1.1l0.8-0.9c-0.2,0.1-0.5,0.1-0.8,0.2C-69.3,6-69.5,6-69.6,5.9c0-0.1-0.1-0.2,0-0.6
			c0,0,0.3-0.6,0.6-1c0.1-0.2,0.5-0.6,1.1-0.9c0.2-0.1,0.7-0.3,0.7-0.3l0,0c0,0-0.1-0.1-0.3-1c-0.3-1.1,0.3-2.3,0.3-2.3
			c0.3,0.2,0.5,0.4,0.6,0.5c0.6,0.4,1.3,0.8,1.3,0.8s0.5-0.4,0.7-0.5c0.3-0.2,0.6-0.3,1.3-0.5c1-0.3,1.6-0.4,2.6-0.5
			c0.5-0.1,1-0.1,1.3-0.1l-1.8-0.9l1.9-0.2l-0.9-1.6l0.6,0.2c0-0.1-0.1-0.3-0.2-0.6c-0.4-0.8-1.2-1-1.2-1.3c0-0.2,0.5-0.4,0.5-0.4
			c0.3-0.1,0.4,0.1,0.6,0c0.3-0.2,0.1-1.1,0-2.1c0-0.9,0.2-1.8,0.3-2.2c0-0.1,0.2-0.5,0.3-1l0,0c0-0.2,0.4-2.2,0.9-2.2
			c0.1,0,0.1,0,0.1,0c0.6,0.3,1.1,1,1.4,1.3c0.6,0.5,1.7,0.3,2.8,0c1.6-0.4,2.1-1.1,2.5-0.9c0.6,0.4-0.2,1.9,0.3,3.1
			c0.4,1,1.8,1.9,5.5,2c0.3,0,0.8-0.1,1.3-0.2c0.6-0.2,1-0.4,1.4-0.6c0.7-0.4,0.8-0.5,1.4-0.8c0.5-0.3,0.9-0.4,1.4-0.6
			c1-0.4,1.9-0.5,2.2-0.6c0.4-0.1,1.1-0.2,1.1-0.2s1.8-0.1,3,0.1c2.1,0.3,3.6,1.5,4.1,1.9c1.1,1,1.8,2,2.2,2.8
			c0.5,0.9,1.1,2.3,1.2,4.2c0.1,1.3,0,2.4-0.1,3.2c-0.2,0.9-0.3,1.7-0.4,2c-0.1,0.4-0.1,0.4-0.4,1.5c-0.5,1.8-0.6,2.3-1.1,3.3
			c-0.1,0.3-0.2,0.5-0.3,0.6c0,0.1-0.1,0.3-0.2,0.6c-0.1,0.4-0.1,0.6-0.1,0.6s0-0.2-0.1-0.6c0,0,0-0.2-0.1-0.6
			C-29.4,9.1-29.4,9-29.4,9c-0.1,0-0.1,0.3-0.1,0.3c-0.1,0-0.1-0.4-0.1-0.4c-0.1,0-0.3,1.7-0.3,1.7c-0.6-1-0.8-1.1-0.8-1.1
			c-0.4-0.3-0.7-0.4-1.4-0.6c-0.4-0.1-0.6-0.2-1-0.2c-0.2,0-0.6-0.1-1.4-0.2c-0.9-0.1-1-0.1-1.8-0.1C-36.7,8.1-37,8.1-37.5,8
			c-0.6-0.1-1.3-0.2-2-0.4c-1.1-0.3-1.7-0.7-1.8-0.6s0.4,0.4,0.9,1.3c0.3,0.5,0.4,0.8,0.6,1.4c0.2,0.7,0.3,1.3,0.4,1.9
			c0.2,0.9,0.2,1.6,0.2,1.8c0,0.6,0,1.1,0,1.4c0,0.3,0,0.7-0.1,1.3c-0.1,0.4-0.3,1.2-0.3,1.2c-1.5,4.8-2.1,6.7-2.3,7.4
			C-42,25.2-42.1,25.7-42.3,26.2z"/>
	</g>
</symbol>
<symbol  id="logo-symbol-wordmark-with-sub" viewBox="-79.2 -32.2 158.4 65.5">
	<g>
		<defs>
			<rect id="SVGID_1_" x="-79.2" y="-32.2" width="158.4" height="64.9"/>
		</defs>
		<clipPath id="SVGID_00000035532214499330000150000013308238943507226537_">
			<use xlink:href="#SVGID_1_"  style="overflow:visible;"/>
		</clipPath>
		<g style="clip-path:url(#SVGID_00000035532214499330000150000013308238943507226537_);">
			
				<use xlink:href="#Deleted_Symbol"  width="158.2" height="64.9" id="XMLID_00000038386125068896248500000013214903545810129034_" x="-79.1" y="-32.5" transform="matrix(1 0 0 -1 -7.729148e-02 0.8996)" style="overflow:visible;"/>
		</g>
	</g>
	<g>
		<path class="st0" d="M-7.2-16.2c-0.3-0.7-0.6-1.4-1-2c-0.1-0.2-0.2-0.2-0.4-0.1s-0.2,0.3-0.1,0.5c0.2,0.5,0.4,1.1,0.6,1.6
			c0.2,0.5,0.3,1.1,0.5,1.7H-8c-0.3,0-0.5,0.1-0.5,0.4v0.1c-0.1,0.3,0.1,0.5,0.4,0.6l1,0.1v1.4L-8-12c-0.3,0-0.4,0.1-0.5,0.4
			c0,0.3,0.1,0.4,0.3,0.5c0.4,0.1,0.8,0.2,1.2,0.3s0.8,0.3,1.1,0.4c0.2,0.1,0.5,0.1,0.6,0.1c0.2-0.1,0.3-0.2,0.4-0.5v-0.1
			c0.2-0.4,0-0.6-0.4-0.7c-0.1,0-0.2,0-0.3,0c-0.1,0-0.2,0-0.3,0V-13l0.6,0.1c0.4,0,0.6-0.1,0.6-0.5v-0.3c0-0.4-0.2-0.6-0.6-0.6H-6
			v-1.2c0.1,0.3,0.4,0.4,0.7,0.4c0.2,0,0.4-0.1,0.5-0.2c0.2-0.2,0.2-0.3,0.2-0.5c0-0.2-0.1-0.4-0.2-0.5c-0.1-0.3-0.3-0.4-0.5-0.4
			c-0.3,0-0.6,0.2-0.7,0.5l-0.1-3.7c0-0.4-0.2-0.6-0.6-0.7s-0.6,0.1-0.6,0.5L-7.2-16.2L-7.2-16.2z M0.2-20.3H-3v-0.2
			c0-0.1-0.1-0.2-0.2-0.2h-0.4c-0.4,0-0.6,0.1-0.6,0.5l-0.2,5c0,0.5,0.2,0.7,0.7,0.7h0.5c0.1,0,0.2-0.1,0.2-0.2v-0.2
			c0.2,0.1,0.4,0.2,0.6,0.4c0.2,0.2,0.3,0.2,0.5,0.2c0.1,0,0.2-0.1,0.3-0.4v-0.1c0.2-0.5,0-0.8-0.5-0.9c-0.3,0-0.6,0-0.9,0v-1.1
			l0.6,0.1c0.4,0.1,0.6-0.1,0.6-0.5v-0.1c0-0.4-0.2-0.6-0.6-0.6H-3v-1.4L0.2-19v1.1h-0.7c-0.4,0-0.6,0.2-0.6,0.5
			c-0.1,0.3,0.1,0.5,0.4,0.6l0.9,0.1v1h-0.7c-0.4,0-0.6,0.2-0.6,0.5s0.1,0.6,0.4,0.6l0.9,0.1c1,0.1,1.4-0.3,1.4-1.3L1.4-20
			c0-0.4-0.2-0.6-0.6-0.6H0.4c-0.2,0-0.2,0.1-0.2,0.2C0.2-20.4,0.2-20.3,0.2-20.3z M-3.5-14.1c-0.2,0-0.5,0.1-0.6,0.3
			c-0.2,0.2-0.3,0.4-0.3,0.6c0,0.3,0.1,0.5,0.3,0.7c0.2,0.2,0.4,0.3,0.6,0.3c0.3,0,0.5-0.1,0.7-0.3s0.3-0.4,0.3-0.7
			c0-0.2-0.1-0.5-0.3-0.6C-3-14.1-3.2-14.1-3.5-14.1z M-4.4-11.5c-0.1,0.3,0,0.4,0.3,0.5c0.7,0.1,1.4,0.2,2,0.4s1.1,0.2,1.6,0.3
			l0.8,0.2c0.5,0.1,0.9-0.1,1-0.6c0.2-0.5,0-0.8-0.5-0.8c-0.8-0.2-1.7-0.2-2.5-0.3s-1.5-0.1-2.2-0.1C-4.2-11.9-4.3-11.8-4.4-11.5z
			 M-1.3-13.8c-0.2,0-0.4,0.1-0.6,0.3s-0.3,0.4-0.3,0.6c0,0.2,0.1,0.4,0.3,0.6c0.2,0.2,0.4,0.3,0.6,0.3c0.3,0,0.5-0.1,0.6-0.3
			c0.2-0.2,0.2-0.4,0.2-0.6c0-0.2-0.1-0.4-0.3-0.6C-0.8-13.7-1.1-13.8-1.3-13.8z M0-14.2c-0.2,0.1-0.3,0.3-0.2,0.5
			C0-13.2,0-12.8,0.1-12.5v0.3c0,0.2,0.1,0.3,0.3,0.2l1.1-0.4c0.2-0.1,0.3-0.2,0.1-0.4l-0.2-0.3c-0.1-0.2-0.2-0.3-0.4-0.5
			c-0.1-0.2-0.3-0.3-0.5-0.5C0.4-14.3,0.2-14.4,0-14.2z"/>
		<path class="st0" d="M4.5-16.5c-0.1-0.1-0.2-0.3-0.3-0.4C4.1-17,4-17.1,3.8-17.2c-0.1-0.2-0.3-0.2-0.4,0C3.2-17,3.2-17,3.3-16.8
			c0.4,0.7,0.7,1.4,1,2c0.3,0.7,0.6,1.4,0.8,2c0.1,0.2,0.2,0.3,0.5,0.2l0.3-0.1v0.6H3.8c-0.3,0-0.5,0.2-0.6,0.5
			c-0.1,0.3,0,0.5,0.4,0.5l2.3,0.1v0.5c0,0.3,0.2,0.5,0.5,0.4H7c0.3,0,0.4-0.2,0.4-0.4v-0.4l2.2,0.1v0.4c0,0.3,0.1,0.4,0.4,0.4
			l0.8-0.1c0.2,0,0.3-0.1,0.3-0.3v-0.3l2.2,0.1c0.5,0,0.7-0.2,0.7-0.7s-0.2-0.7-0.7-0.7H11v-0.3c0-0.2-0.2-0.4-0.4-0.4h-0.5
			c-0.3,0-0.4,0.1-0.4,0.4v0.4H7.2v-0.3c0-0.2-0.1-0.3-0.3-0.3l-0.6-0.2l0.3-0.1c0.2-0.1,0.2-0.2,0.1-0.3c-0.3-0.5-0.5-1-0.8-1.4
			v-5.4c0-0.4-0.2-0.7-0.6-0.7c-0.4-0.1-0.6,0.1-0.6,0.5L4.5-16.5z M10.1-20.3c-0.2,0-0.3,0.2-0.3,0.4c0,0.2,0.1,0.4,0.3,0.4
			l1.4,0.2v4.9H7.3c-0.3,0-0.5,0.2-0.6,0.5s0,0.5,0.4,0.5l6,0.4c0.5,0,0.7-0.2,0.7-0.7V-14c0-0.3-0.1-0.4-0.4-0.4H13l-0.2-4.9
			c0-1-0.5-1.4-1.5-1.2L10.1-20.3z M6.8-15.8c0,0.4,0.2,0.7,0.6,0.7H8c0.1,0,0.2-0.1,0.2-0.2v-0.2l1.3,0.2c0.8,0.1,1.2-0.3,1.2-1.1
			l-0.1-1.4c0-0.7-0.4-1.1-1.2-1.1H8.2v-0.2c0-0.2-0.1-0.2-0.2-0.3H7.7c-0.4,0-0.6,0.1-0.6,0.5L6.8-15.8z M8.2-17.8l1.1,0.1v1.1H8.2
			V-17.8z"/>
	</g>
</symbol>
<g id="图层_2_00000078727019194181205790000016520123684360951708_">
</g>
<g id="图层_1_00000093177411206960925680000003227538961761014181_">
	<g>
		<defs>
			<rect id="SVGID_00000019671062537616172100000009835808024729234304_" x="0" y="0.1" width="158.4" height="64.9"/>
		</defs>
		<clipPath id="SVGID_00000047778699566446961440000005034404465669687968_">
			<use xlink:href="#SVGID_00000019671062537616172100000009835808024729234304_"  style="overflow:visible;"/>
		</clipPath>
		<g style="clip-path:url(#SVGID_00000047778699566446961440000005034404465669687968_);">
			
				<use xlink:href="#logo-symbol-wordmark-with-sub"  width="158.4" height="65.5" id="XMLID_00000002384308578363576720000002388368554892263560_" x="-79.2" y="-32.2" transform="matrix(1 0 0 1 79.1987 32.0356)" style="overflow:visible;"/>
		</g>
	</g>
</g>
</svg>
