<?xml version="1.0" encoding="utf-8"?>
<!-- Generator: Adobe Illustrator 25.4.1, SVG Export Plug-In . SVG Version: 6.00 Build 0)  -->
<svg version="1.1" id="图层_1" xmlns="http://www.w3.org/2000/svg" xmlns:xlink="http://www.w3.org/1999/xlink" x="0px" y="0px"
	 viewBox="0 0 261 66" style="enable-background:new 0 0 261 66;" xml:space="preserve">
<style type="text/css">
	.st0{fill:#FFFFFF;}
	.st1{fill:url(#_x3C_path_x3E__00000005981938573952645010000000958215380034834838_);fill-opacity:0.97;}
</style>
<symbol  id="logo-symbol-wordmark" viewBox="-149.9 21.8 158.3 64.9">
	<g>
		<g>
			<path class="st0" d="M-74.2,38.8c1,0,1.5-0.5,1.5-1.6c0-0.9-0.5-1.5-1.5-1.5h-5c-1,0-1.5,0.5-1.5,1.5c0,1.1,0.5,1.6,1.6,1.6h0.8
				v18h-0.9c-1,0-1.5,0.6-1.5,1.6s0.5,1.5,1.6,1.5h4.9c1,0,1.5-0.5,1.5-1.5s-0.5-1.6-1.5-1.6h-0.9v-18H-74.2z"/>
			<path class="st0" d="M-64.7,36.6c-0.6-0.9-1.3-1-2.1-0.4l-0.2,0.1c-0.3,0.3-0.5,0.6-0.5,1.1v20.4c0,1,0.5,1.5,1.5,1.5
				s1.5-0.5,1.5-1.5v-16l13.8,17.3c0.6,0.9,1.3,1,2.2,0.4s1-1.4,0.4-2.2L-64.7,36.6z M-50.4,37.4v13.2c0,1,0.5,1.5,1.5,1.5
				s1.5-0.5,1.5-1.5V37.3c0-1-0.5-1.5-1.5-1.5S-50.5,36.3-50.4,37.4z"/>
			<path class="st0" d="M-40.7,59.7c0.3-0.1,0.6-0.4,0.7-0.8l5.4-15.6c0.1-0.4,0.1-0.8-0.1-1.2c-0.1-0.4-0.4-0.7-0.7-0.8
				c-0.4-0.1-0.8-0.1-1.1,0.1c-0.3,0.1-0.6,0.4-0.7,0.8l-5.3,15.5c-0.1,0.4-0.1,0.8,0.1,1.2c0.1,0.4,0.4,0.7,0.7,0.8
				C-41.4,59.9-41,59.9-40.7,59.7z M-26.8,59.7c0.4,0.1,0.7,0.1,1.1,0c0.3-0.2,0.6-0.4,0.7-0.8c0.2-0.4,0.2-0.8,0.1-1.2l-7.4-21.2
				c-0.1-0.4-0.4-0.7-0.7-0.9c-0.4-0.1-0.7-0.1-1.1,0c-0.4,0.2-0.6,0.4-0.8,0.8c-0.1,0.4-0.1,0.8,0,1.2l7.4,21.3
				C-27.3,59.3-27.1,59.5-26.8,59.7z"/>
			<path class="st0" d="M-20.4,58.2c0,1.1,0.5,1.6,1.6,1.6c1,0,1.5-0.5,1.5-1.6v-9.8c2.2,0.1,4.5,0.1,6.7,0.1c4.4,0,6.7-2.2,6.8-6.6
				c0-1-0.2-1.9-0.6-2.7l0,0c0,0-0.4-1-1.1-1.7c-0.6-0.6-2.3-1.7-4.9-1.9c-4.2,0-7.3,0.1-8.5,0.1c-0.2,0-0.8,0-1.2,0.4
				c-0.3,0.3-0.4,0.7-0.4,1.2v0.2v9.1v0.2C-20.5,50.6-20.5,54.4-20.4,58.2z M-17.3,38.8c3.5,0,6,0,7,0c0,0,1,0,1.8,0.4
				c0.2,0.1,0.4,0.2,0.4,0.2c0.1,0.1,0.2,0.2,0.3,0.3c0.5,0.5,0.7,1.1,0.7,2c0,0.2,0,1.6-0.9,2.5c-0.8,0.8-1.8,0.8-2.8,0.9
				c-1.6,0.1-3.8,0.2-6.5,0.1C-17.3,43.1-17.3,41-17.3,38.8z M-12.9,51.8V52c0,0.3,0.2,0.6,0.4,0.9l5.4,6.4c0.7,0.8,1.4,0.8,2.2,0.1
				s0.8-1.4,0.1-2.2l-5.3-6.3c-0.3-0.5-0.7-0.7-1.3-0.7C-12.4,50.2-13,50.7-12.9,51.8z"/>
			<path class="st0" d="M6.8,38.8c1,0,1.5-0.5,1.5-1.6c0-0.9-0.5-1.5-1.5-1.5h-5c-1,0-1.5,0.5-1.5,1.5c0,1.1,0.5,1.6,1.6,1.6h0.8v18
				H1.8c-1,0-1.5,0.6-1.5,1.6s0.5,1.5,1.6,1.5h4.9c1,0,1.5-0.5,1.5-1.5s-0.5-1.6-1.5-1.6H5.9v-18H6.8z"/>
		</g>
		
			<linearGradient id="_x3C_path_x3E__00000030463338977974356310000009977648849088824986_" gradientUnits="userSpaceOnUse" x1="-149.9444" y1="51.1909" x2="-88.5347" y2="51.1909" gradientTransform="matrix(1 0 0 1 0 3.0991)">
			<stop  offset="7.551570e-02" style="stop-color:#563ACC"/>
			<stop  offset="0.5201" style="stop-color:#6364FF"/>
		</linearGradient>
		
			<path id="_x3C_path_x3E__00000067929045036786665210000002770348704794070679_" style="fill:url(#_x3C_path_x3E__00000030463338977974356310000009977648849088824986_);fill-opacity:0.97;" d="
			M-88.9,51.1c0,0.4-0.1,4.1-0.1,4.5c-0.7,10-6.9,13.9-13.5,15.2c-0.1,0.1-0.2,0.1-0.3,0.1c-4.2,0.8-8.7,1-12.9,1.1c-1,0-2,0-3,0
			c-4.2,0-8.4-0.5-12.5-1.5c-0.1,0-0.1,0-0.1,0c-0.1,0-0.1,0-0.1,0c0,0.1,0,0.1,0,0.1c0,0.1,0,0.1,0,0.1c0.2,1.3,0.4,2.7,0.9,3.9
			c0.5,1.4,2.5,4.9,9.9,4.9c4.3,0,8.5-0.5,12.7-1.5c0.1,0,0.1,0,0.1,0c0.1,0,0.1,0,0.1,0l0,0c0,0.1,0,0.1,0,0.1V83
			c0,0.1,0,0.1,0,0.1c0,0.1,0,0.1,0,0.1c-1.4,0.9-3.2,1.5-4.8,2c-0.7,0.2-1.4,0.4-2.1,0.6c-6.5,1.5-13.3,1.1-19.6-1
			c-5.9-2-11.9-7.1-13.3-13.1c-0.8-3.3-1.4-6.6-1.7-10c-0.5-5.1-0.5-10.1-0.7-15.2c-0.2-3.5-0.1-7.4,0.6-10.9c1.6-7,8-12,15.1-13
			c1.3-0.1,3.6-0.8,14.3-0.8h0.1c10.8,0,15.4,0.7,16.7,0.9c7.2,1,13.4,6.5,14.3,13.5C-88.3,41.4-88.8,49.8-88.9,51.1z"/>
		<path class="st0" d="M-112.7,29.4c0.2,0.7,0.8,2.6,2.3,7.4c0,0,0.2,0.8,0.3,1.2c0.1,0.6,0.1,1,0.1,1.3s0,0.8,0,1.4
			c0,0.2,0,0.9-0.2,1.8c-0.1,0.6-0.2,1.2-0.4,1.9c-0.2,0.6-0.3,0.9-0.6,1.4c-0.5,0.9-1,1.2-0.9,1.3c0.1,0.1,0.7-0.3,1.8-0.6
			c0.7-0.2,1.4-0.3,2-0.4c0.5,0,0.8-0.1,1.3-0.1c0.8,0,0.9,0,1.8-0.1c0.8-0.1,1.2-0.2,1.4-0.2c0.4,0,0.6-0.1,1-0.2
			c0.7-0.2,1-0.3,1.4-0.6c0,0,0.2-0.1,0.8-1.1c0,0,0.2,1.7,0.3,1.7c0,0,0-0.4,0.1-0.4c0,0,0,0.3,0.1,0.3c0,0,0-0.1,0.1-0.3
			c0.1-0.4,0.1-0.6,0.1-0.6c0.1-0.4,0.1-0.6,0.1-0.6s0,0.2,0.1,0.6c0.1,0.3,0.2,0.5,0.2,0.6c0.1,0.1,0.2,0.3,0.3,0.6
			c0.5,1,0.6,1.5,1.1,3.3c0.3,1.1,0.3,1.1,0.4,1.5c0.1,0.3,0.2,1.1,0.4,2c0.1,0.8,0.2,1.9,0.1,3.2c-0.1,1.9-0.7,3.3-1.2,4.2
			c-0.4,0.8-1.1,1.8-2.2,2.8c-0.5,0.4-2,1.6-4.1,1.9c-1.2,0.2-3,0.1-3,0.1s-0.7-0.1-1.1-0.2c-0.3-0.1-1.2-0.2-2.2-0.6
			c-0.5-0.2-0.9-0.3-1.4-0.6c-0.6-0.3-0.7-0.4-1.4-0.8c-0.4-0.2-0.8-0.4-1.4-0.6c-0.5-0.1-1-0.2-1.3-0.2c-3.7,0.1-5.1,1-5.5,2
			c-0.5,1.2,0.3,2.7-0.3,3.1c-0.4,0.2-0.9-0.5-2.5-0.9c-1.1-0.3-2.2-0.5-2.8,0c-0.3,0.3-0.8,1-1.4,1.3c0,0,0,0-0.1,0
			c-0.5,0-0.9-2-0.9-2.2l0,0c-0.1-0.5-0.3-0.9-0.3-1c-0.1-0.4-0.3-1.3-0.3-2.2c0.1-1,0.3-1.9,0-2.1c-0.2-0.1-0.3,0.1-0.6,0
			c0,0-0.5-0.2-0.5-0.4c-0.1-0.3,0.7-0.5,1.2-1.3c0.1-0.3,0.2-0.5,0.2-0.6l-0.6,0.2l0.9-1.6l-1.9-0.2l1.7-0.9c-0.3,0-0.8,0-1.3-0.1
			c-1-0.1-1.6-0.2-2.6-0.5c-0.7-0.2-1-0.3-1.3-0.5c-0.2-0.1-0.7-0.5-0.7-0.5s-0.7,0.4-1.3,0.8c-0.1,0.1-0.3,0.3-0.6,0.5
			c0,0-0.6-1.2-0.3-2.3c0.2-0.9,0.3-1,0.3-1l0,0c0,0-0.5-0.2-0.7-0.3c-0.6-0.3-1-0.7-1.1-0.9c-0.3-0.4-0.6-1-0.6-1
			c-0.1-0.4,0-0.5,0-0.6c0.1-0.1,0.3-0.1,1.2,0.1c0.3,0.1,0.6,0.1,0.8,0.2l-0.8-0.9l-0.8-1.1l-0.7-1.3l-0.4-1.2
			c-0.2-0.8-0.4-1.8-0.5-3c0-0.2-0.1-1.2,0-2.6c0-0.8,0.1-2.2,0.6-4c0.6-2.2,1.5-3.7,2.2-4.9c1.3-2.1,1.8-2.2,2-2.2
			c0.5,0,0.7,0.4,1.9,2.1c1.8,2.6,1.8,2.4,2.6,3.7c1,1.6,1.4,2.5,1.5,2.7c0.3,0.6,0.6,1.5,1,1.5c0.1,0,0.1-0.1,0.4-0.3
			s0.5-0.4,0.7-0.5l-1-0.2c0.2-0.2,0.4-0.3,0.7-0.5c0.5-0.3,0.9-0.4,1.2-0.5c0.1,0,0.4-0.1,0.7,0c0.1,0,0.5,0.1,0.8,0.3
			c0.2,0.2,0.3,0.3,0.5,0.6c0.2,0.2,0.2,0.3,0.3,0.4c0.1-0.1,0.1-0.4,0.3-0.6c0.2-0.3,0.4-0.5,0.6-0.6c0.2-0.1,0.5-0.2,0.8-0.3
			c0.2,0,0.4-0.1,0.6,0c0.1,0.1,0.2,0.1,0.2,0.1c-0.1,0-0.3,0.1-0.5,0.3c-0.2,0.1-0.2,0.3-0.3,0.4c-0.1,0.1-0.2,0.4-0.2,0.7
			c0,0.1,0,0.2,0.1,0.3c0.1,0.2,0.3,0.3,0.5,0.3c0.4,0,0.3-0.9,0.8-1.9c0.2-0.3,0.4-0.6,0.9-1.2c0.1-0.2,0.6-0.8,1.1-1.4
			c1.3-1.4,2.6-2.4,3.2-2.8c1.7-1.3,2-1.1,2.7-1.9c0.5-0.5,0.9-1.1,1.2-1c0.1,0,0.2,0.2,0.4,0.9C-112.9,28.7-112.8,29.2-112.7,29.4z
			"/>
	</g>
</symbol>
<use xlink:href="#logo-symbol-wordmark"  width="158.3" height="64.9" x="-149.9" y="21.8" transform="matrix(1 0 0 1 150.5849 -21.8396)" style="overflow:visible;"/>
</svg>
