<?xml version="1.0" encoding="utf-8"?>
<!-- Generator: Adobe Illustrator 25.4.1, SVG Export Plug-In . SVG Version: 6.00 Build 0)  -->
<svg version="1.1" xmlns="http://www.w3.org/2000/svg" xmlns:xlink="http://www.w3.org/1999/xlink" x="0px" y="0px"
	 viewBox="0 0 65 65" style="enable-background:new 0 0 65 65;" xml:space="preserve">
<style type="text/css">
	.st0{fill:url(#_x3C_path_x3E__00000007427277674868436420000001250252081211927993_);fill-opacity:0.97;}
	.st1{fill:#FFFFFF;}
</style>
<g id="图层_1">
</g>
<g id="图层_2">
	
		<linearGradient id="_x3C_path_x3E__00000142875247279773577600000006057016054511623571_" gradientUnits="userSpaceOnUse" x1="1.7943" y1="32.5322" x2="63.2057" y2="32.5322">
		<stop  offset="7.551570e-02" style="stop-color:#563ACC"/>
		<stop  offset="0.5201" style="stop-color:#6364FF"/>
	</linearGradient>
	
		<path id="_x3C_path_x3E_" style="fill:url(#_x3C_path_x3E__00000142875247279773577600000006057016054511623571_);fill-opacity:0.97;" d="
		M63,14.4C62,7.5,55.9,2,48.6,0.9C47.4,0.7,42.8,0.1,32,0.1h-0.1c-10.8,0-13.1,0.7-14.3,0.8c-7.1,1-13.5,6-15.1,13
		c-0.8,3.5-0.8,7.3-0.7,10.9C2.1,29.9,2.1,34.9,2.6,40c0.3,3.4,0.9,6.7,1.7,10C5.7,56,11.7,61,17.6,63.1c6.3,2.1,13.1,2.5,19.6,1
		c0.7-0.2,1.4-0.4,2.1-0.6c1.6-0.5,3.4-1.1,4.8-2c0,0,0,0,0-0.1c0,0,0,0,0-0.1v-4.9c0,0,0,0,0-0.1c0,0,0,0,0,0c0,0,0,0-0.1,0
		c0,0,0,0-0.1,0c-4.2,1-8.4,1.5-12.7,1.5c-7.4,0-9.4-3.5-9.9-4.9c-0.5-1.2-0.7-2.6-0.9-3.9c0,0,0,0,0-0.1c0,0,0,0,0-0.1
		c0,0,0,0,0.1,0c0,0,0,0,0.1,0c4.1,1,8.3,1.5,12.5,1.5c1,0,2,0,3,0c4.2-0.1,8.7-0.3,12.9-1.1c0.1,0,0.2,0,0.3-0.1
		C56,47.9,62.3,43.9,62.9,34c0-0.4,0.1-4.1,0.1-4.5C63,28.1,63.5,19.6,63,14.4z"/>
	<path class="st1" d="M38.7,6.5c-0.2-0.7-0.3-0.9-0.4-0.9c-0.3-0.1-0.7,0.5-1.2,1c-0.7,0.8-1,0.6-2.7,1.9c-0.6,0.4-1.9,1.4-3.2,2.8
		c-0.5,0.6-1,1.2-1.1,1.4c-0.5,0.6-0.7,0.9-0.9,1.2c-0.5,1-0.4,1.9-0.8,1.9c-0.2,0-0.4-0.1-0.5-0.3c-0.1-0.1-0.1-0.2-0.1-0.3
		c0-0.3,0.1-0.6,0.2-0.7c0.1-0.1,0.1-0.3,0.3-0.4c0.2-0.2,0.4-0.3,0.5-0.3c0,0-0.1,0-0.2-0.1c-0.2-0.1-0.4,0-0.6,0
		c-0.3,0.1-0.6,0.2-0.8,0.3c-0.2,0.1-0.4,0.3-0.6,0.6c-0.2,0.2-0.2,0.5-0.3,0.6c-0.1-0.1-0.1-0.2-0.3-0.4c-0.2-0.3-0.3-0.4-0.5-0.6
		c-0.3-0.2-0.7-0.3-0.8-0.3c-0.3-0.1-0.6,0-0.7,0c-0.3,0.1-0.7,0.2-1.2,0.5c-0.3,0.2-0.5,0.3-0.7,0.5l1,0.2
		c-0.2,0.1-0.4,0.3-0.7,0.5c-0.3,0.2-0.3,0.3-0.4,0.3c-0.4,0-0.7-0.9-1-1.5c-0.1-0.2-0.5-1.1-1.5-2.7c-0.8-1.3-0.8-1.1-2.6-3.7
		c-1.2-1.7-1.4-2.1-1.9-2.1c-0.2,0-0.7,0.1-2,2.2c-0.7,1.2-1.6,2.7-2.2,4.9c-0.5,1.8-0.6,3.2-0.6,4c-0.1,1.4,0,2.4,0,2.6
		c0.1,1.2,0.3,2.2,0.5,3l0.4,1.2l0.7,1.3l0.8,1.1l0.8,0.9c-0.2-0.1-0.5-0.1-0.8-0.2c-0.9-0.2-1.1-0.2-1.2-0.1c0,0.1-0.1,0.2,0,0.6
		c0,0,0.3,0.6,0.6,1c0.1,0.2,0.5,0.6,1.1,0.9c0.2,0.1,0.7,0.3,0.7,0.3c0,0,0,0,0,0c0,0-0.1,0.1-0.3,1c-0.3,1.1,0.3,2.3,0.3,2.3
		c0.3-0.2,0.5-0.4,0.6-0.5c0.6-0.4,1.3-0.8,1.3-0.8c0,0,0.5,0.4,0.7,0.5c0.3,0.2,0.6,0.3,1.3,0.5c1,0.3,1.6,0.4,2.6,0.5
		c0.5,0.1,1,0.1,1.3,0.1L19.9,34l1.9,0.2l-0.9,1.6l0.6-0.2c0,0.1-0.1,0.3-0.2,0.6c-0.5,0.8-1.3,1-1.2,1.3c0,0.2,0.5,0.4,0.5,0.4
		c0.3,0.1,0.4-0.1,0.6,0c0.3,0.2,0.1,1.1,0,2.1c0,0.9,0.2,1.8,0.3,2.2c0,0.1,0.2,0.5,0.3,1c0,0,0,0,0,0c0,0.2,0.4,2.2,0.9,2.2
		c0.1,0,0.1,0,0.1,0c0.6-0.3,1.1-1,1.4-1.3c0.6-0.5,1.7-0.3,2.8,0c1.6,0.4,2.1,1.1,2.5,0.9c0.6-0.4-0.2-1.9,0.3-3.1
		c0.4-1,1.8-1.9,5.5-2c0.3,0,0.8,0.1,1.3,0.2c0.6,0.2,1,0.4,1.4,0.6c0.7,0.4,0.8,0.5,1.4,0.8c0.5,0.3,0.9,0.4,1.4,0.6
		c1,0.4,1.9,0.5,2.2,0.6c0.4,0.1,1.1,0.2,1.1,0.2c0,0,1.8,0.1,3-0.1c2.1-0.3,3.6-1.5,4.1-1.9c1.1-1,1.8-2,2.2-2.8
		c0.5-0.9,1.1-2.3,1.2-4.2c0.1-1.3,0-2.4-0.1-3.2c-0.2-0.9-0.3-1.7-0.4-2c-0.1-0.4-0.1-0.4-0.4-1.5c-0.5-1.8-0.6-2.3-1.1-3.3
		c-0.1-0.3-0.2-0.5-0.3-0.6c0-0.1-0.1-0.3-0.2-0.6c-0.1-0.4-0.1-0.6-0.1-0.6c0,0,0,0.2-0.1,0.6c0,0,0,0.2-0.1,0.6
		c-0.1,0.2-0.1,0.3-0.1,0.3c-0.1,0-0.1-0.3-0.1-0.3c-0.1,0-0.1,0.4-0.1,0.4c-0.1,0-0.3-1.7-0.3-1.7c-0.6,1-0.8,1.1-0.8,1.1
		c-0.4,0.3-0.7,0.4-1.4,0.6c-0.4,0.1-0.6,0.2-1,0.2c-0.2,0-0.6,0.1-1.4,0.2c-0.9,0.1-1,0.1-1.8,0.1c-0.5,0-0.8,0.1-1.3,0.1
		c-0.6,0.1-1.3,0.2-2,0.4c-1.1,0.3-1.7,0.7-1.8,0.6c-0.1-0.1,0.4-0.4,0.9-1.3c0.3-0.5,0.4-0.8,0.6-1.4c0.2-0.7,0.3-1.3,0.4-1.9
		c0.2-0.9,0.2-1.6,0.2-1.8c0-0.6,0-1.1,0-1.4c0-0.3,0-0.7-0.1-1.3c-0.1-0.4-0.3-1.2-0.3-1.2c-1.5-4.8-2.1-6.7-2.3-7.4
		C39,7.4,38.8,6.9,38.7,6.5z"/>
</g>
</svg>
