<?xml version="1.0" encoding="utf-8"?>
<!-- Generator: Adobe Illustrator 25.4.1, SVG Export Plug-In . SVG Version: 6.00 Build 0)  -->
<svg version="1.1" id="图层_1" xmlns="http://www.w3.org/2000/svg" xmlns:xlink="http://www.w3.org/1999/xlink" x="0px" y="0px"
	 viewBox="0 0 79 79" style="enable-background:new 0 0 79 79;" xml:space="preserve">
<style type="text/css">
	.st0{fill:#FFFFFF;fill-opacity:0.97;}
	.st1{display:none;}
</style>
<symbol  id="logo-symbol-icon" viewBox="-35.7 -37.1 71.4 74.2">
	<path class="st0" d="M35.5-3.6c0,0.5-0.1,4.8-0.1,5.2C34.6,13,27.3,17.5,19.7,18.9C19.6,19,19.5,19,19.4,19
		c-4.9,0.9-10.1,1.2-15,1.3c-1.1,0-2.3,0-3.5,0c-4.9,0-9.7-0.6-14.5-1.7h-0.1c-0.1,0-0.1,0-0.1,0c0,0.1,0,0.1,0,0.1v0.1
		c0.1,1.5,0.5,3,1,4.4c0.6,1.6,2.9,5.6,11.5,5.6c5,0,10-0.6,14.8-1.7h0.1c0.1,0,0.1,0,0.1,0c0,0.1,0,0.1,0,0.1c0,0.1,0,0.1,0,0.1
		v5.6c0,0.1,0.1,0,0,0.1s-0.1,0.1-0.1,0.1C12,34.2,9.8,34.8,8,35.4c-0.8,0.3-1.7,0.5-2.5,0.7c-7.6,1.7-15.5,1.2-22.8-1.2
		c-6.9-2.3-13.9-8.1-15.6-15c-0.9-3.8-1.5-7.6-1.9-11.4C-35.3,2.8-35.4-3-35.6-8.8c-0.2-4-0.1-8.4,0.8-12.4
		c1.8-8,9.3-13.7,17.5-14.9c1.4-0.3,4.1-1,16.6-1h0.1c12.5,0,17.9,0.8,19.3,1c8.5,1.2,15.6,7.5,16.7,15.5C36-14.7,35.5-5,35.5-3.6z
		 M25.5-1.8c-0.2-1.1-0.3-1.9-0.4-2.3C25-4.6,25-4.6,24.6-5.8c-0.6-2-0.7-2.7-1.2-3.8c-0.1-0.3-0.2-0.5-0.3-0.7S23-10.7,22.9-11
		c0-0.4-0.1-0.7-0.1-0.7c-0.1,0,0,0.3-0.1,0.7c0,0-0.1,0.3-0.2,0.7c0,0.2-0.1,0.3-0.1,0.3l-0.1-0.3c0,0,0,0.5-0.1,0.5
		c-0.2,0-0.4-2-0.4-2c-0.7,1.1-0.9,1.3-0.9,1.3c-0.4,0.4-0.8,0.5-1.6,0.7c-0.4,0.1-0.8,0.1-1.2,0.2c-0.3,0-0.7,0.1-1.7,0.2
		c-1,0.1-1.1,0.1-2.1,0.2c-0.6,0.1-1,0.1-1.5,0.2c-0.7,0.1-1.5,0.2-2.4,0.4c-1.3,0.4-2,0.8-2.1,0.7C8.2-8,8.8-8.4,9.7-9.3
		c0.4-0.6,0.5-1,0.7-1.6c0.3-0.8,0.4-1.5,0.5-2.2c0.1-1.1,0.2-1.9,0.2-2.1c0-0.7,0-1.3,0-1.6c-0.1-0.3-0.1-0.8-0.2-1.5
		c-0.1-0.4-0.3-1.3-0.3-1.3C8.8-25,8.2-27.2,8-28c-0.1-0.5-0.3-1.1-0.5-1.6c-0.3-0.8-0.3-1-0.5-1.1c-0.4-0.1-0.9,0.6-1.4,1.2
		c-0.9,0.9-1.2,0.7-3.2,2.1c-0.7,0.4-2.3,1.5-3.7,3.1c-0.6,0.7-1.2,1.4-1.3,1.6c-0.5,0.7-0.8,1.1-1,1.4c-0.6,1.2-0.5,2.1-0.9,2.2
		c-0.2,0-0.5-0.1-0.6-0.3c-0.1-0.1-0.1-0.2-0.1-0.3c0-0.3,0.1-0.6,0.2-0.8c0.1-0.1,0.2-0.3,0.4-0.5c0.2-0.1,0.4-0.2,0.5-0.3
		c0,0-0.1-0.1-0.2-0.1c-0.3-0.1-0.6,0-0.7,0c-0.4,0.1-0.7,0.3-0.9,0.4s-0.5,0.3-0.7,0.7c-0.2,0.3-0.3,0.5-0.3,0.7
		c-0.1-0.2-0.2-0.3-0.3-0.5c-0.2-0.3-0.3-0.5-0.6-0.7c-0.4-0.3-0.7-0.4-0.9-0.4c-0.4-0.1-0.7,0-0.9,0c-0.4,0.1-0.9,0.2-1.4,0.5
		c-0.3,0.1-0.6,0.3-0.8,0.5l1.2,0.3c-0.2,0.1-0.5,0.3-0.9,0.6c-0.3,0.2-0.4,0.3-0.5,0.3c-0.4,0-0.8-1-1.1-1.7
		c-0.2-0.3-0.6-1.3-1.8-3.1c-1-1.6-1-1.3-3.1-4.3c-1.4-2-1.6-2.5-2.2-2.5c-0.3,0-0.9,0.1-2.4,2.5c-0.9,1.4-1.9,3.1-2.6,5.6
		c-0.6,2-0.7,3.7-0.7,4.6c-0.1,1.6,0,2.7,0,3c0.1,1.4,0.4,2.5,0.6,3.4l0.5,1.4l0.8,1.5l1,1.3l0.9,1c-0.3,0-0.6-0.1-1-0.2
		c-1.1-0.2-1.3-0.2-1.4-0.1s-0.2,0.3,0,0.7c0,0,0.3,0.7,0.5,1.2c0.1,0.2,0.6,0.8,1.3,1.1c0.2,0.1,0.8,0.3,0.8,0.3s-0.1,0.2-0.3,1.1
		c-0.3,1.3,0.3,2.6,0.3,2.6c0.4-0.2,0.6-0.4,0.8-0.5c0.8-0.5,1.6-0.9,1.6-0.9s0.6,0.4,0.8,0.6c0.3,0.2,0.6,0.3,1.5,0.5
		c1.2,0.3,1.9,0.5,3,0.6c0.7,0.1,1.2,0.1,1.6,0.1l-2.1,1l2.2,0.2l-1,1.9l0.7-0.2c-0.1,0.1-0.1,0.3-0.3,0.6c-0.6,0.9-1.6,1.1-1.5,1.5
		c0,0.2,0.6,0.4,0.6,0.4c0.4,0.1,0.5-0.1,0.7,0c0.4,0.2,0.1,1.3,0,2.4c0,1,0.2,2.1,0.4,2.6c0,0.1,0.2,0.6,0.3,1.2l0,0
		c0.1,0.2,0.5,2.6,1.1,2.6h0.1c0.7-0.4,1.3-1.2,1.7-1.5c0.8-0.6,2-0.3,3.3,0c1.8,0.5,2.4,1.3,2.9,1c0.8-0.4-0.2-2.1,0.4-3.5
		c0.5-1.1,2-2.2,6.4-2.3c0.3,0,0.9,0.1,1.5,0.3C5.5,9.1,6,9.4,6.5,9.6c0.8,0.5,0.9,0.6,1.7,1c0.6,0.3,1.1,0.4,1.6,0.6
		c1.2,0.4,2.2,0.6,2.5,0.7c0.4,0.1,1.3,0.2,1.3,0.2s2,0.1,3.5-0.1c2.4-0.3,4.2-1.6,4.8-2.1c1.3-1.1,2.1-2.3,2.5-3.2
		c0.5-1,1.2-2.7,1.4-4.8C26,0.4,25.8-0.8,25.5-1.8z"/>
</symbol>
<g id="图层_1_00000158731354288472067660000009120270642659881909_" class="st1">
</g>
<g id="图层_2_00000116223160472363972860000012373440792693224832_">
	<g>
		<defs>
			<rect id="SVGID_1_" x="4.2" y="2.4" width="71.3" height="74.2"/>
		</defs>
		<clipPath id="SVGID_00000064350653324025031750000005796141988242354830_">
			<use xlink:href="#SVGID_1_"  style="overflow:visible;"/>
		</clipPath>
		<g style="clip-path:url(#SVGID_00000064350653324025031750000005796141988242354830_);">
			
				<use xlink:href="#logo-symbol-icon"  width="71.4" height="74.2" id="XMLID_00000127748873057458775510000011025319154119181491_" x="-35.7" y="-37.1" transform="matrix(1 0 0 1 39.7706 38.9016)" style="overflow:visible;"/>
		</g>
	</g>
</g>
</svg>
